<svg width="309" height="309" viewBox="0 0 309 309" fill="none" xmlns="http://www.w3.org/2000/svg">
<path d="M130.032 0H138.159V8.12698H130.032V0ZM178.794 0H186.921V8.12698H178.794V0ZM56.8889 32.5079H65.0159V40.6349H56.8889V32.5079ZM32.5079 56.8889H40.6349V65.0159H32.5079V56.8889ZM300.698 105.651H308.825V113.778H300.698V105.651ZM0 130.032H8.12698V138.159H0V130.032ZM292.571 219.429H300.698V227.556H292.571V219.429ZM276.317 235.683H292.571V243.81H276.317V235.683ZM195.048 284.444H203.175V292.571H195.048V284.444ZM227.556 284.444H243.81V292.571H227.556V284.444ZM219.429 292.571H227.556V300.698H219.429V292.571ZM105.651 300.698H113.778V308.825H105.651V300.698ZM178.794 300.698H186.921V308.825H178.794V300.698Z" fill="#3D5CBD"/>
<path d="M138.159 0H146.286V8.12698H138.159V0ZM48.7619 40.6349H56.8889V48.7619H48.7619V40.6349ZM48.7619 56.8889H56.8889V65.0159H48.7619V56.8889ZM65.0159 56.8889H73.1429V65.0159H65.0159V56.8889ZM260.064 56.8889H268.19V65.0159H260.064V56.8889ZM48.7619 73.1429H56.8889V81.2698H48.7619V73.1429ZM65.0159 73.1429H73.1429V81.2698H65.0159V73.1429ZM81.2698 73.1429H89.3968V81.2698H81.2698V73.1429ZM243.81 73.1429H251.937V81.2698H243.81V73.1429ZM276.317 73.1429H292.571V81.2698H276.317V73.1429ZM40.6349 81.2698H48.7619V89.3968H40.6349V81.2698ZM284.444 81.2698H292.571V178.794H284.444V81.2698ZM32.5079 89.3968H40.6349V97.5238H32.5079V89.3968ZM48.7619 89.3968H56.8889V97.5238H48.7619V89.3968ZM65.0159 89.3968H73.1429V97.5238H65.0159V89.3968ZM81.2698 89.3968H89.3968V97.5238H81.2698V89.3968ZM97.5238 89.3968H105.651V97.5238H97.5238V89.3968ZM227.556 89.3968H235.683V97.5238H227.556V89.3968ZM243.81 89.3968H251.937V97.5238H243.81V89.3968ZM260.064 89.3968H268.19V97.5238H260.064V89.3968ZM276.317 89.3968H284.444V97.5238H276.317V89.3968ZM40.6349 97.5238H48.7619V105.651H40.6349V97.5238ZM56.8889 97.5238H65.0159V105.651H56.8889V97.5238ZM32.5079 105.651H40.6349V113.778H32.5079V105.651ZM48.7619 105.651H56.8889V113.778H48.7619V105.651ZM65.0159 105.651H73.1429V113.778H65.0159V105.651ZM81.2698 105.651H89.3968V113.778H81.2698V105.651ZM211.302 105.651H219.429V113.778H211.302V105.651ZM227.556 105.651H235.683V113.778H227.556V105.651ZM243.81 105.651H251.937V113.778H243.81V105.651ZM260.064 105.651H268.19V113.778H260.064V105.651ZM276.317 105.651H284.444V113.778H276.317V105.651ZM292.571 105.651H300.698V113.778H292.571V105.651ZM40.6349 113.778H48.7619V138.159H40.6349V113.778ZM56.8889 113.778H65.0159V121.905H56.8889V113.778ZM73.1429 113.778H81.2698V121.905H73.1429V113.778ZM203.175 113.778H211.302V121.905H203.175V113.778ZM235.683 113.778H243.81V121.905H235.683V113.778ZM251.937 113.778H260.064V121.905H251.937V113.778ZM268.19 113.778H276.317V138.159H268.19V113.778ZM300.698 113.778H308.825V146.286H300.698V113.778ZM32.5079 121.905H40.6349V130.032H32.5079V121.905ZM48.7619 121.905H56.8889V130.032H48.7619V121.905ZM65.0159 121.905H73.1429V130.032H65.0159V121.905ZM81.2698 121.905H89.3968V130.032H81.2698V121.905ZM178.794 121.905H186.921V130.032H178.794V121.905ZM195.048 121.905H203.175V130.032H195.048V121.905ZM211.302 121.905H219.429V130.032H211.302V121.905ZM227.556 121.905H235.683V130.032H227.556V121.905ZM243.81 121.905H251.937V130.032H243.81V121.905ZM260.064 121.905H268.19V130.032H260.064V121.905ZM276.317 121.905H284.444V130.032H276.317V121.905ZM292.571 121.905H300.698V130.032H292.571V121.905ZM56.8889 130.032H65.0159V186.921H56.8889V130.032ZM186.921 130.032H195.048V138.159H186.921V130.032ZM203.175 130.032H211.302V138.159H203.175V130.032ZM219.429 130.032H227.556V154.413H219.429V130.032ZM235.683 130.032H243.81V138.159H235.683V130.032ZM251.937 130.032H260.064V211.302H251.937V130.032ZM32.5079 138.159H40.6349V146.286H32.5079V138.159ZM48.7619 138.159H56.8889V146.286H48.7619V138.159ZM65.0159 138.159H73.1429V146.286H65.0159V138.159ZM81.2698 138.159H89.3968V146.286H81.2698V138.159ZM178.794 138.159H186.921V146.286H178.794V138.159ZM195.048 138.159H203.175V146.286H195.048V138.159ZM211.302 138.159H219.429V146.286H211.302V138.159ZM227.556 138.159H235.683V146.286H227.556V138.159ZM243.81 138.159H251.937V146.286H243.81V138.159ZM260.064 138.159H268.19V146.286H260.064V138.159ZM276.317 138.159H284.444V146.286H276.317V138.159ZM292.571 138.159H300.698V146.286H292.571V138.159ZM24.381 146.286H32.5079V154.413H24.381V146.286ZM40.6349 146.286H48.7619V170.667H40.6349V146.286ZM73.1429 146.286H81.2698V170.667H73.1429V146.286ZM170.667 146.286H178.794V154.413H170.667V146.286ZM186.921 146.286H195.048V154.413H186.921V146.286ZM203.175 146.286H211.302V170.667H203.175V146.286ZM235.683 146.286H243.81V170.667H235.683V146.286ZM268.19 146.286H276.317V170.667H268.19V146.286ZM0 154.413H8.12698V162.54H0V154.413ZM32.5079 154.413H40.6349V162.54H32.5079V154.413ZM48.7619 154.413H56.8889V162.54H48.7619V154.413ZM65.0159 154.413H73.1429V162.54H65.0159V154.413ZM81.2698 154.413H89.3968V162.54H81.2698V154.413ZM97.5238 154.413H105.651V162.54H97.5238V154.413ZM130.032 154.413H138.159V162.54H130.032V154.413ZM146.286 154.413H154.413V162.54H146.286V154.413ZM162.54 154.413H170.667V162.54H162.54V154.413ZM178.794 154.413H186.921V162.54H178.794V154.413ZM195.048 154.413H203.175V162.54H195.048V154.413ZM211.302 154.413H219.429V162.54H211.302V154.413ZM227.556 154.413H235.683V162.54H227.556V154.413ZM243.81 154.413H251.937V162.54H243.81V154.413ZM260.064 154.413H268.19V162.54H260.064V154.413ZM276.317 154.413H284.444V162.54H276.317V154.413ZM300.698 154.413H308.825V162.54H300.698V154.413ZM24.381 162.54H32.5079V170.667H24.381V162.54ZM89.3968 162.54H97.5238V186.921H89.3968V162.54ZM154.413 162.54H162.54V186.921H154.413V162.54ZM170.667 162.54H178.794V170.667H170.667V162.54ZM186.921 162.54H195.048V186.921H186.921V162.54ZM219.429 162.54H227.556V227.556H219.429V162.54ZM16.254 170.667H24.381V178.794H16.254V170.667ZM32.5079 170.667H40.6349V178.794H32.5079V170.667ZM48.7619 170.667H56.8889V178.794H48.7619V170.667ZM65.0159 170.667H73.1429V178.794H65.0159V170.667ZM81.2698 170.667H89.3968V178.794H81.2698V170.667ZM97.5238 170.667H105.651V178.794H97.5238V170.667ZM113.778 170.667H121.905V178.794H113.778V170.667ZM130.032 170.667H138.159V178.794H130.032V170.667ZM146.286 170.667H154.413V178.794H146.286V170.667ZM162.54 170.667H170.667V178.794H162.54V170.667ZM178.794 170.667H186.921V178.794H178.794V170.667ZM195.048 170.667H203.175V178.794H195.048V170.667ZM211.302 170.667H219.429V178.794H211.302V170.667ZM227.556 170.667H235.683V178.794H227.556V170.667ZM243.81 170.667H251.937V178.794H243.81V170.667ZM260.064 170.667H268.19V178.794H260.064V170.667ZM300.698 170.667H308.825V178.794H300.698V170.667ZM24.381 178.794H32.5079V186.921H24.381V178.794ZM40.6349 178.794H48.7619V203.175H40.6349V178.794ZM73.1429 178.794H81.2698V203.175H73.1429V178.794ZM105.651 178.794H113.778V203.175H105.651V178.794ZM121.905 178.794H130.032V186.921H121.905V178.794ZM138.159 178.794H146.286V203.175H138.159V178.794ZM170.667 178.794H178.794V203.175H170.667V178.794ZM203.175 178.794H211.302V203.175H203.175V178.794ZM235.683 178.794H243.81V211.302H235.683V178.794ZM268.19 178.794H276.317V203.175H268.19V178.794ZM32.5079 186.921H40.6349V195.048H32.5079V186.921ZM48.7619 186.921H56.8889V195.048H48.7619V186.921ZM65.0159 186.921H73.1429V195.048H65.0159V186.921ZM81.2698 186.921H89.3968V195.048H81.2698V186.921ZM97.5238 186.921H105.651V195.048H97.5238V186.921ZM113.778 186.921H121.905V195.048H113.778V186.921ZM130.032 186.921H138.159V195.048H130.032V186.921ZM146.286 186.921H154.413V195.048H146.286V186.921ZM162.54 186.921H170.667V195.048H162.54V186.921ZM178.794 186.921H186.921V195.048H178.794V186.921ZM195.048 186.921H203.175V195.048H195.048V186.921ZM211.302 186.921H219.429V195.048H211.302V186.921ZM284.444 186.921H292.571V195.048H284.444V186.921ZM24.381 195.048H32.5079V203.175H24.381V195.048ZM56.8889 195.048H65.0159V260.064H56.8889V195.048ZM89.3968 195.048H97.5238V260.064H89.3968V195.048ZM121.905 195.048H130.032V243.81H121.905V195.048ZM154.413 195.048H162.54V243.81H154.413V195.048ZM186.921 195.048H195.048V243.81H186.921V195.048ZM16.254 203.175H24.381V211.302H16.254V203.175ZM32.5079 203.175H40.6349V211.302H32.5079V203.175ZM65.0159 203.175H73.1429V211.302H65.0159V203.175ZM81.2698 203.175H89.3968V211.302H81.2698V203.175ZM97.5238 203.175H105.651V211.302H97.5238V203.175ZM113.778 203.175H121.905V211.302H113.778V203.175ZM130.032 203.175H138.159V211.302H130.032V203.175ZM146.286 203.175H154.413V211.302H146.286V203.175ZM162.54 203.175H170.667V211.302H162.54V203.175ZM178.794 203.175H186.921V211.302H178.794V203.175ZM195.048 203.175H203.175V211.302H195.048V203.175ZM24.381 211.302H32.5079V219.429H24.381V211.302ZM40.6349 211.302H48.7619V235.683H40.6349V211.302ZM73.1429 211.302H81.2698V235.683H73.1429V211.302ZM105.651 211.302H113.778V235.683H105.651V211.302ZM138.159 211.302H146.286V235.683H138.159V211.302ZM170.667 211.302H178.794V235.683H170.667V211.302ZM203.175 211.302H211.302V235.683H203.175V211.302ZM16.254 219.429H24.381V227.556H16.254V219.429ZM32.5079 219.429H40.6349V227.556H32.5079V219.429ZM235.683 219.429H243.81V227.556H235.683V219.429ZM251.937 219.429H260.064V227.556H251.937V219.429ZM24.381 227.556H32.5079V235.683H24.381V227.556ZM32.5079 235.683H40.6349V243.81H32.5079V235.683ZM219.429 235.683H227.556V243.81H219.429V235.683ZM40.6349 243.81H48.7619V260.064H40.6349V243.81ZM73.1429 251.937H81.2698V260.064H73.1429V251.937ZM105.651 251.937H113.778V260.064H105.651V251.937ZM121.905 251.937H130.032V260.064H121.905V251.937ZM138.159 251.937H146.286V260.064H138.159V251.937ZM154.413 251.937H162.54V260.064H154.413V251.937ZM186.921 251.937H195.048V260.064H186.921V251.937ZM56.8889 268.19H65.0159V276.317H56.8889V268.19ZM105.651 268.19H113.778V276.317H105.651V268.19Z" fill="#C44186"/>
<path d="M154.413 0H162.54V8.12698H154.413V0ZM113.778 8.12698H121.905V16.254H113.778V8.12698ZM130.032 8.12698H138.159L138.159 16.254H130.032L130.032 8.12698ZM178.794 8.12698H186.921L186.921 16.254H178.794L178.794 8.12698ZM195.048 8.12698H203.175V16.254H195.048V8.12698ZM89.3968 16.254H97.5238V24.381H89.3968V16.254ZM105.651 16.254H113.778V24.381H105.651V16.254ZM203.175 16.254H211.302V24.381H203.175V16.254ZM219.429 16.254H227.556V24.381H219.429V16.254ZM73.1428 24.381H89.3968V32.5079H73.1428V24.381ZM97.5238 24.381H105.651V32.5079H97.5238V24.381ZM195.048 24.381H203.175V32.5079H195.048V24.381ZM211.302 24.381H219.429V32.5079H211.302V24.381ZM227.556 24.381H243.81V32.5079H227.556V24.381ZM73.1428 32.5079H81.2698V40.6349H73.1428V32.5079ZM89.3968 32.5079H97.5238V40.6349H89.3968V32.5079ZM219.429 32.5079H227.556V40.6349H219.429V32.5079ZM235.683 32.5079H243.81V40.6349H235.683V32.5079ZM56.8889 40.6349H73.1428V48.7619H56.8889V40.6349ZM81.2698 40.6349H89.3968V48.7619H81.2698V40.6349ZM97.5238 40.6349H105.651V48.7619H97.5238V40.6349ZM113.778 40.6349H121.905V48.7619H113.778V40.6349ZM211.302 40.6349H219.429V48.7619H211.302V40.6349ZM227.556 40.6349H235.683V48.7619H227.556V40.6349ZM243.81 40.6349H251.936V48.7619H243.81V40.6349ZM40.6349 48.7619H48.7619V56.8889H40.6349L40.6349 48.7619ZM56.8889 48.7619H65.0158L65.0159 56.8889H56.8889V48.7619ZM73.1428 48.7619H81.2698L81.2698 73.1429H73.1429L73.1428 48.7619ZM89.3968 48.7619H97.5238V56.8889H89.3968V48.7619ZM105.651 48.7619H113.778V56.8889H105.651V48.7619ZM219.429 48.7619H227.556V56.8889H219.429V48.7619ZM235.683 48.7619H243.81L243.81 73.1429H235.683V48.7619ZM251.936 48.7619H260.063L260.064 56.8889H251.936V48.7619ZM81.2698 56.8889H89.3968V65.0159H81.2698V56.8889ZM97.5238 56.8889H105.651V65.0159H97.5238V56.8889ZM113.778 56.8889H121.905V65.0159H113.778V56.8889ZM130.032 56.8889H138.159V65.0159H130.032V56.8889ZM195.048 56.8889H203.175V65.0159H195.048V56.8889ZM211.302 56.8889H219.429V65.0159H211.302V56.8889ZM227.556 56.8889H235.683V65.0159H227.556V56.8889ZM243.81 56.8889H251.936V65.0159H243.81V56.8889ZM268.19 56.8889H276.317L276.317 73.1429H268.19L268.19 56.8889ZM40.6349 65.0159H48.7619V73.1429H40.6349L40.6349 65.0159ZM56.8889 65.0159H65.0159V89.3968H56.8889V65.0159ZM89.3968 65.0159H97.5238V73.1429H89.3968L89.3968 65.0159ZM105.651 65.0159H113.778V73.1429H105.651V65.0159ZM121.905 65.0159H130.032V73.1429H121.905V65.0159ZM219.429 65.0159H227.556V73.1429H219.429V65.0159ZM251.936 65.0159H260.064V89.3968H251.937L251.936 65.0159ZM32.5079 73.1429H40.6349L40.6349 81.2698H32.5079V73.1429ZM97.5238 73.1429H105.651V81.2698H97.5238V73.1429ZM113.778 73.1429H121.905V81.2698H113.778V73.1429ZM130.032 73.1429H138.159V81.2698H130.032V73.1429ZM146.286 73.1429H154.413V81.2698H146.286V73.1429ZM178.794 73.1429H186.921V81.2698H178.794V73.1429ZM195.048 73.1429H203.175V81.2698H195.048V73.1429ZM211.302 73.1429H219.429V81.2698H211.302V73.1429ZM227.556 73.1429H235.683V81.2698H227.556V73.1429ZM260.063 73.1429H268.19V81.2698H260.063V73.1429ZM73.1429 81.2698H81.2698V105.651H73.1429V81.2698ZM89.3968 81.2698H97.5238L97.5238 89.3968H89.3968V81.2698ZM105.651 81.2698H113.778V105.651H105.651V81.2698ZM121.905 81.2698H130.032V89.3968H121.905V81.2698ZM138.159 81.2698H146.286V89.3968H138.159V81.2698ZM170.667 81.2698H178.794V105.651H170.667V81.2698ZM186.921 81.2698H195.048V89.3968H186.921V81.2698ZM203.175 81.2698H211.302L211.302 105.651H203.175V81.2698ZM219.429 81.2698H227.556L227.556 89.3968H219.429V81.2698ZM235.683 81.2698H243.81V105.651H235.683L235.683 81.2698ZM268.19 81.2698H276.317V105.651H268.19L268.19 81.2698ZM40.6349 89.3968H48.7619V97.5238H40.6349V89.3968ZM113.778 89.3968H121.905V97.5238H113.778V89.3968ZM130.032 89.3968H138.159V97.5238H130.032V89.3968ZM146.286 89.3968H154.413V97.5238H146.286V89.3968ZM162.54 89.3968H170.667V97.5238H162.54V89.3968ZM178.794 89.3968H186.921V97.5238H178.794V89.3968ZM195.048 89.3968H203.175V97.5238H195.048V89.3968ZM211.302 89.3968H219.429V97.5238H211.302V89.3968ZM24.3809 97.5238H32.5079V105.651H24.3809V97.5238ZM89.3968 97.5238H97.5238L97.5238 105.651H89.3968V97.5238ZM121.905 97.5238H130.032V105.651H121.905V97.5238ZM138.159 97.5238H146.286V105.651H138.159V97.5238ZM154.413 97.5238H162.54V105.651H154.413V97.5238ZM186.921 97.5238H195.048V105.651H186.921V97.5238ZM219.429 97.5238H227.556V121.905H219.429L219.429 97.5238ZM251.937 97.5238H260.064V105.651H251.937V97.5238ZM16.2539 105.651H24.3809V113.778H16.2539V105.651ZM56.8889 105.651H65.0159V113.778H56.8889V105.651ZM97.5238 105.651H105.651V113.778H97.5238V105.651ZM113.778 105.651H121.905V113.778H113.778V105.651ZM130.032 105.651H138.159V113.778H130.032V105.651ZM146.286 105.651H154.413V113.778H146.286V105.651ZM162.54 105.651H170.667V113.778H162.54V105.651ZM178.794 105.651H186.921V113.778H178.794V105.651ZM195.048 105.651H203.175L203.175 113.778H195.048V105.651ZM24.3809 113.778H32.5079V121.905H24.3809V113.778ZM89.3968 113.778H97.5238V121.905H89.3968V113.778ZM105.651 113.778H113.778V121.905H105.651V113.778ZM138.159 113.778H146.286V121.905H138.159V113.778ZM154.413 113.778H162.54V121.905H154.413V113.778ZM170.667 113.778H178.794L178.794 138.159H170.667V113.778ZM186.921 113.778H195.048L195.048 121.905H186.921L186.921 113.778ZM16.2539 121.905H24.3809V130.032H16.2539V121.905ZM73.1429 121.905H81.2698V138.159H73.1429V121.905ZM97.5238 121.905H105.651V130.032H97.5238V121.905ZM113.778 121.905H121.905V130.032H113.778V121.905ZM130.032 121.905H138.159V130.032H130.032V121.905ZM146.286 121.905H154.413V130.032H146.286V121.905ZM162.54 121.905H170.667V130.032H162.54V121.905ZM203.175 121.905H211.302V130.032H203.175V121.905ZM235.683 121.905H243.81V130.032H235.683V121.905ZM24.3809 130.032H32.5079V138.159H24.3809V130.032ZM89.3968 130.032H97.5238V138.159H89.3968V130.032ZM105.651 130.032H113.778V138.159H105.651V130.032ZM154.413 130.032H162.54V138.159H154.413V130.032ZM16.2539 138.159H24.3809L24.381 146.286H16.2539V138.159ZM97.5238 138.159H105.651V146.286H97.5238V138.159ZM113.778 138.159H121.905V146.286H113.778V138.159ZM130.032 138.159H138.159V146.286H130.032V138.159ZM146.286 138.159H154.413V146.286H146.286V138.159ZM162.54 138.159H170.667L170.667 146.286H162.54V138.159ZM186.921 138.159H195.048V146.286H186.921V138.159ZM8.12695 146.286H16.2539V154.413H8.12698L8.12695 146.286ZM89.3968 146.286H97.5238L97.5238 154.413H89.3968V146.286ZM105.651 146.286H113.778L113.778 170.667H105.651L105.651 146.286ZM121.905 146.286H130.032L130.032 154.413H121.905V146.286ZM138.159 146.286H146.286L146.286 170.667H138.159L138.159 146.286ZM154.413 146.286H162.54L162.54 154.413H154.413L154.413 146.286ZM16.2539 154.413H24.381V162.54H16.2539V154.413ZM113.778 154.413H121.905V162.54H113.778V154.413ZM170.667 154.413H178.794V162.54H170.667V154.413ZM8.12698 162.54H16.2539L16.254 170.667H8.12695L8.12698 162.54ZM121.905 162.54H130.032V170.667H121.905L121.905 162.54ZM24.381 170.667H32.5079V178.794H24.381V170.667ZM8.12695 178.794H16.254L16.2539 186.921H8.12695V178.794ZM16.2539 186.921H24.381V195.048H16.2539V186.921ZM8.12695 195.048H16.2539L16.254 203.175H8.12695V195.048Z" fill="#818ADA"/>
<path d="M170.667 0H178.794V8.12698H170.667V0ZM81.2698 16.254H89.3968V24.381H81.2698V16.254ZM16.254 81.2698H24.381V89.3968H16.254V81.2698ZM292.571 89.3968H300.698V97.5238H292.571V89.3968ZM0 138.159H8.12698L8.12695 146.286H0V138.159ZM300.698 146.286H308.825V154.413H300.698V146.286ZM292.571 154.413H300.698V162.54H292.571V154.413ZM300.698 162.54H308.825V170.667H300.698V162.54ZM0 170.667H8.12695V178.794H0V170.667ZM276.317 170.667H284.444V178.794H276.317V170.667ZM292.571 170.667H300.698V178.794H292.571V170.667ZM284.444 178.794H292.571V186.921H284.444V178.794ZM300.698 178.794H308.825V203.175H300.698V178.794ZM227.556 186.921H235.683V195.048H227.556V186.921ZM243.81 186.921H251.937V195.048H243.81V186.921ZM260.064 186.921H268.19V195.048H260.064V186.921ZM276.317 186.921H284.444V195.048H276.317V186.921ZM292.571 186.921H300.698V195.048H292.571V186.921ZM284.444 195.048H292.571V235.683H284.444V195.048ZM48.7619 203.175H56.8889V211.302H48.7619V203.175ZM211.302 203.175H219.429V211.302H211.302V203.175ZM227.556 203.175H235.683V211.302H227.556V203.175ZM243.81 203.175H251.937V211.302H243.81V203.175ZM260.064 203.175H268.19V211.302H260.064V203.175ZM276.317 203.175H284.444V211.302H276.317V203.175ZM292.571 203.175H300.698V219.429H292.571V203.175ZM235.683 211.302H243.81V219.429H235.683V211.302ZM251.937 211.302H260.064V219.429H251.937V211.302ZM268.19 211.302H276.317V260.064H268.19V211.302ZM48.7619 219.429H56.8889V227.556H48.7619V219.429ZM65.0159 219.429H73.1429V227.556H65.0159V219.429ZM81.2698 219.429H89.3968V227.556H81.2698V219.429ZM97.5238 219.429H105.651V227.556H97.5238V219.429ZM113.778 219.429H121.905V227.556H113.778V219.429ZM130.032 219.429H138.159V227.556H130.032V219.429ZM146.286 219.429H154.413V227.556H146.286V219.429ZM162.54 219.429H170.667V227.556H162.54V219.429ZM178.794 219.429H186.921V227.556H178.794V219.429ZM195.048 219.429H203.175V227.556H195.048V219.429ZM211.302 219.429H219.429V227.556H211.302V219.429ZM227.556 219.429H235.683V227.556H227.556V219.429ZM243.81 219.429H251.937V227.556H243.81V219.429ZM260.064 219.429H268.19V227.556H260.064V219.429ZM276.317 219.429H284.444V227.556H276.317V219.429ZM219.429 227.556H227.556V235.683H219.429V227.556ZM235.683 227.556H243.81V235.683H235.683V227.556ZM251.937 227.556H260.064V276.317H251.937V227.556ZM48.7619 235.683H56.8889V243.81H48.7619V235.683ZM65.0159 235.683H73.1429V243.81H65.0159V235.683ZM81.2698 235.683H89.3968V243.81H81.2698V235.683ZM97.5238 235.683H105.651V243.81H97.5238V235.683ZM113.778 235.683H121.905V243.81H113.778V235.683ZM130.032 235.683H138.159V243.81H130.032V235.683ZM146.286 235.683H154.413V243.81H146.286V235.683ZM162.54 235.683H170.667V243.81H162.54V235.683ZM178.794 235.683H186.921V243.81H178.794V235.683ZM195.048 235.683H203.175V243.81H195.048V235.683ZM211.302 235.683H219.429V243.81H211.302V235.683ZM227.556 235.683H235.683V243.81H227.556V235.683ZM243.81 235.683H251.937V243.81H243.81V235.683ZM260.064 235.683H268.19V243.81H260.064V235.683ZM73.1429 243.81H81.2698V251.937H73.1429V243.81ZM105.651 243.81H113.778V251.937H105.651V243.81ZM121.905 243.81H130.032V251.937H121.905V243.81ZM138.159 243.81H146.286V251.937H138.159V243.81ZM154.413 243.81H162.54V251.937H154.413V243.81ZM170.667 243.81H178.794V308.825H170.667V243.81ZM186.921 243.81H195.048V251.937H186.921V243.81ZM203.175 243.81H211.302V300.698H203.175V243.81ZM219.429 243.81H227.556V292.571H219.429V243.81ZM235.683 243.81H243.81V284.444H235.683V243.81ZM48.7619 251.937H56.8889V260.064H48.7619V251.937ZM65.0159 251.937H73.1429V260.064H65.0159V251.937ZM81.2698 251.937H89.3968V260.064H81.2698V251.937ZM97.5238 251.937H105.651V260.064H97.5238V251.937ZM113.778 251.937H121.905V260.064H113.778V251.937ZM130.032 251.937H138.159V260.064H130.032V251.937ZM146.286 251.937H154.413V260.064H146.286V251.937ZM162.54 251.937H170.667V260.064H162.54V251.937ZM178.794 251.937H186.921V260.064H178.794V251.937ZM195.048 251.937H203.175V260.064H195.048V251.937ZM211.302 251.937H219.429V260.064H211.302V251.937ZM227.556 251.937H235.683V260.064H227.556V251.937ZM243.81 251.937H251.937V260.064H243.81V251.937ZM260.064 251.937H268.19V260.064H260.064V251.937ZM56.8889 260.064H65.0159V268.19H56.8889V260.064ZM73.1429 260.064H81.2698V268.19H73.1429V260.064ZM89.3968 260.064H97.5238V300.698H89.3968V260.064ZM105.651 260.064H113.778V268.19H105.651V260.064ZM121.905 260.064H130.032V308.825H121.905V260.064ZM138.159 260.064H146.286V268.19H138.159V260.064ZM154.413 260.064H162.54V308.825H154.413V260.064ZM186.921 260.064H195.048V308.825H186.921V260.064ZM65.0159 268.19H73.1429V276.317H65.0159V268.19ZM81.2698 268.19H89.3968V276.317H81.2698V268.19ZM97.5238 268.19H105.651V276.317H97.5238V268.19ZM113.778 268.19H121.905V276.317H113.778V268.19ZM130.032 268.19H138.159V276.317H130.032V268.19ZM146.286 268.19H154.413V276.317H146.286V268.19ZM162.54 268.19H170.667V276.317H162.54V268.19ZM178.794 268.19H186.921V276.317H178.794V268.19ZM195.048 268.19H203.175V276.317H195.048V268.19ZM211.302 268.19H219.429V276.317H211.302V268.19ZM227.556 268.19H235.683V284.444H227.556V268.19ZM243.81 268.19H251.937V276.317H243.81V268.19ZM73.1429 276.317H81.2698V292.571H73.1429V276.317ZM105.651 276.317H113.778V300.698H105.651V276.317ZM138.159 276.317H146.286V308.825H138.159V276.317ZM81.2698 284.444H89.3968V292.571H81.2698V284.444ZM97.5238 284.444H105.651V292.571H97.5238V284.444ZM113.778 284.444H121.905V292.571H113.778V284.444ZM130.032 284.444H138.159V292.571H130.032V284.444ZM146.286 284.444H154.413V292.571H146.286V284.444ZM162.54 284.444H170.667V292.571H162.54V284.444ZM178.794 284.444H186.921V292.571H178.794V284.444ZM211.302 284.444H219.429V292.571H211.302V284.444ZM113.778 300.698H121.905V308.825H113.778V300.698ZM130.032 300.698H138.159V308.825H130.032V300.698ZM146.286 300.698H154.413V308.825H146.286V300.698ZM162.54 300.698H170.667V308.825H162.54V300.698ZM195.048 300.698H203.175V308.825H195.048V300.698Z" fill="#3D5CBD"/>
<path d="M211.302 300.698H203.175V308.825H211.302V300.698Z" fill="#3D5CBD"/>
<path d="M146.286 8.12698H154.413V16.254H146.286L146.286 8.12698ZM162.54 8.12698H170.667L170.667 16.254H162.54V8.12698ZM121.905 16.254H130.032V24.381H121.905V16.254ZM138.159 16.254L146.286 16.254V24.381H138.159V16.254ZM170.667 16.254L178.794 16.254V24.381H170.667V16.254ZM186.921 16.254H195.048V24.381L186.921 24.381V16.254ZM105.651 24.381L121.905 24.381V32.5079H105.651V24.381ZM130.032 24.381H138.159V32.5079H130.032V24.381ZM146.286 24.381H154.413V32.5079H146.286V24.381ZM162.54 24.381H170.667V32.5079H162.54V24.381ZM178.794 24.381H186.921V32.5079H178.794V24.381ZM105.651 32.5079H113.778V40.6349H105.651V32.5079ZM121.905 32.5079H130.032V40.6349H121.905V32.5079ZM154.413 32.5079H162.54V40.6349H154.413V32.5079ZM186.921 32.5079H195.048V40.6349H186.921V32.5079ZM203.175 32.5079H211.302V40.6349H203.175V32.5079ZM130.032 40.6349H138.159V48.7619H130.032V40.6349ZM146.286 40.6349H154.413V48.7619H146.286V40.6349ZM162.54 40.6349H170.667V48.7619H162.54V40.6349ZM178.794 40.6349H186.921V48.7619H178.794V40.6349ZM195.048 40.6349H203.175V48.7619H195.048V40.6349ZM121.905 48.7619L130.032 48.7619V56.8889H121.905V48.7619ZM138.159 48.7619H146.286V56.8889H138.159V48.7619ZM154.413 48.7619H162.54V56.8889H154.413V48.7619ZM170.667 48.7619H178.794V56.8889H170.667V48.7619ZM203.175 48.7619L211.302 48.7619V56.8889H203.175V48.7619ZM146.286 56.8889H154.413V65.0159H146.286V56.8889ZM162.54 56.8889H170.667V65.0159H162.54V56.8889ZM178.794 56.8889H186.921V65.0159H178.794V56.8889ZM154.413 65.0159H162.54V73.1429H154.413V65.0159ZM186.921 65.0159H195.048V73.1429H186.921V65.0159ZM203.175 65.0159H211.302V73.1429H203.175V65.0159ZM162.54 73.1429H170.667V81.2698H162.54V73.1429ZM24.381 81.2698H32.5079L32.5079 89.3968H24.381V81.2698ZM154.413 81.2698H162.54V89.3968H154.413V81.2698ZM16.254 89.3968H24.381L24.3809 97.5238L16.2539 97.5238L16.254 89.3968ZM8.12695 113.778H16.2539V121.905H8.12695V113.778ZM121.905 113.778H130.032V121.905H121.905V113.778ZM121.905 130.032H130.032V138.159H121.905V130.032Z" fill="#40B2E3"/>
<path d="M146.286 0H154.413V8.12698H146.286V0ZM162.54 0H170.667V8.12698H162.54V0ZM105.651 8.12698H113.778V16.254H105.651L105.651 8.12698ZM121.905 8.12698H130.032L130.032 16.254H121.905V8.12698ZM138.159 8.12698H146.286L146.286 16.254L138.159 16.254L138.159 8.12698ZM154.413 8.12698H162.54V32.5079H154.413V8.12698ZM170.667 8.12698H178.794L178.794 16.254L170.667 16.254L170.667 8.12698ZM186.921 8.12698H195.048V16.254H186.921L186.921 8.12698ZM203.175 8.12698H211.302L211.302 16.254H203.175V8.12698ZM97.5238 16.254H105.651V24.381H97.5238V16.254ZM113.778 16.254H121.905V24.381L113.778 24.381V16.254ZM130.032 16.254H138.159V24.381H130.032V16.254ZM146.286 16.254H154.413V24.381H146.286V16.254ZM162.54 16.254H170.667V24.381H162.54V16.254ZM178.794 16.254H186.921V24.381H178.794V16.254ZM195.048 16.254H203.175V24.381H195.048V16.254ZM211.302 16.254H219.429V24.381H211.302V16.254ZM89.3968 24.381H97.5238V32.5079H89.3968V24.381ZM121.905 24.381H130.032V32.5079H121.905V24.381ZM138.159 24.381H146.286V48.7619H138.159V24.381ZM170.667 24.381H178.794V48.7619H170.667V24.381ZM186.921 24.381L195.048 24.381V32.5079H186.921V24.381ZM203.175 24.381H211.302V32.5079H203.175V24.381ZM219.429 24.381H227.556V32.5079H219.429V24.381ZM65.0159 32.5079H73.1428V40.6349H65.0159V32.5079ZM81.2698 32.5079H89.3968V40.6349H81.2698V32.5079ZM97.5238 32.5079H105.651V40.6349H97.5238V32.5079ZM113.778 32.5079H121.905V40.6349H113.778V32.5079ZM130.032 32.5079H138.159V40.6349H130.032V32.5079ZM146.286 32.5079H154.413V40.6349H146.286V32.5079ZM162.54 32.5079H170.667V40.6349H162.54V32.5079ZM178.794 32.5079H186.921V40.6349H178.794V32.5079ZM195.048 32.5079H203.175V40.6349H195.048V32.5079ZM211.302 32.5079H219.429V40.6349H211.302V32.5079ZM227.556 32.5079H235.683V40.6349H227.556V32.5079ZM243.81 32.5079H251.937L251.936 40.6349H243.81V32.5079ZM73.1428 40.6349H81.2698V48.7619H73.1428V40.6349ZM89.3968 40.6349H97.5238V48.7619H89.3968V40.6349ZM105.651 40.6349H113.778V48.7619H105.651V40.6349ZM121.905 40.6349H130.032V48.7619L121.905 48.7619V40.6349ZM154.413 40.6349H162.54V48.7619H154.413V40.6349ZM186.921 40.6349H195.048V65.0159H186.921V40.6349ZM203.175 40.6349H211.302V48.7619L203.175 48.7619V40.6349ZM219.429 40.6349H227.556V48.7619H219.429V40.6349ZM235.683 40.6349H243.81V48.7619H235.683V40.6349ZM251.936 40.6349H260.064L260.063 48.7619H251.936V40.6349ZM48.7619 48.7619H56.8889V56.8889H48.7619V48.7619ZM65.0158 48.7619H73.1428L73.1429 56.8889H65.0159L65.0158 48.7619ZM81.2698 48.7619H89.3968V56.8889H81.2698V48.7619ZM97.5238 48.7619H105.651V56.8889H97.5238V48.7619ZM113.778 48.7619H121.905V56.8889H113.778V48.7619ZM130.032 48.7619H138.159V56.8889H130.032V48.7619ZM146.286 48.7619H154.413V56.8889H146.286V48.7619ZM162.54 48.7619H170.667V56.8889H162.54V48.7619ZM178.794 48.7619H186.921V56.8889H178.794V48.7619ZM195.048 48.7619H203.175V56.8889H195.048V48.7619ZM211.302 48.7619H219.429V56.8889H211.302V48.7619ZM227.556 48.7619H235.683V56.8889H227.556V48.7619ZM243.81 48.7619H251.936V56.8889H243.81V48.7619ZM260.063 48.7619H268.19V56.8889H260.064L260.063 48.7619ZM40.6349 56.8889H48.7619V65.0159H40.6349V56.8889ZM56.8889 56.8889H65.0159V65.0159H56.8889V56.8889ZM89.3968 56.8889H97.5238V65.0159H89.3968V56.8889ZM105.651 56.8889H113.778V65.0159H105.651V56.8889ZM121.905 56.8889H130.032V65.0159H121.905V56.8889ZM138.159 56.8889H146.286V81.2698H138.159V56.8889ZM154.413 56.8889H162.54V65.0159H154.413V56.8889ZM170.667 56.8889H178.794V81.2698H170.667V56.8889ZM203.175 56.8889H211.302V65.0159H203.175V56.8889ZM219.429 56.8889H227.556V65.0159H219.429V56.8889ZM251.936 56.8889H260.064V65.0159H251.936V56.8889ZM32.5079 65.0159H40.6349L40.6349 73.1429H32.5079L32.5079 65.0159ZM48.7619 65.0159H56.8889V73.1429H48.7619V65.0159ZM65.0159 65.0159H73.1429V73.1429H65.0159V65.0159ZM81.2698 65.0159H89.3968L89.3968 73.1429H81.2698L81.2698 65.0159ZM97.5238 65.0159H105.651V73.1429H97.5238V65.0159ZM113.778 65.0159H121.905V73.1429H113.778V65.0159ZM130.032 65.0159H138.159V73.1429H130.032V65.0159ZM146.286 65.0159H154.413V73.1429H146.286V65.0159ZM162.54 65.0159H170.667V73.1429H162.54V65.0159ZM178.794 65.0159H186.921V73.1429H178.794V65.0159ZM195.048 65.0159H203.175V73.1429H195.048V65.0159ZM211.302 65.0159H219.429V73.1429H211.302V65.0159ZM227.556 65.0159H235.683V73.1429H227.556V65.0159ZM243.81 65.0159H251.936L251.937 73.1429H243.81L243.81 65.0159ZM260.064 65.0159H268.19L268.19 73.1429H260.063L260.064 65.0159ZM276.317 65.0159H284.444V73.1429H276.317V65.0159ZM24.381 73.1429H32.5079V81.2698H24.381V73.1429ZM40.6349 73.1429H48.7619V81.2698H40.6349L40.6349 73.1429ZM73.1429 73.1429H81.2698V81.2698H73.1429V73.1429ZM89.3968 73.1429H97.5238V81.2698H89.3968V73.1429ZM105.651 73.1429H113.778V81.2698H105.651V73.1429ZM121.905 73.1429H130.032V81.2698H121.905V73.1429ZM154.413 73.1429H162.54V81.2698H154.413V73.1429ZM186.921 73.1429H195.048V81.2698H186.921V73.1429ZM203.175 73.1429H211.302V81.2698H203.175V73.1429ZM219.429 73.1429H227.556V81.2698H219.429V73.1429ZM235.683 73.1429H243.81V81.2698H235.683V73.1429ZM268.19 73.1429H276.317V81.2698H268.19V73.1429ZM32.5079 81.2698H40.6349V89.3968H32.5079L32.5079 81.2698ZM48.7619 81.2698H56.8889V89.3968H48.7619V81.2698ZM65.0159 81.2698H73.1429V89.3968H65.0159V81.2698ZM81.2698 81.2698H89.3968V89.3968H81.2698V81.2698ZM97.5238 81.2698H105.651L105.651 89.3968H97.5238L97.5238 81.2698ZM113.778 81.2698H121.905V89.3968H113.778V81.2698ZM130.032 81.2698H138.159V89.3968H130.032V81.2698ZM146.286 81.2698H154.413V89.3968H146.286V81.2698ZM162.54 81.2698H170.667V89.3968H162.54V81.2698ZM178.794 81.2698H186.921V89.3968H178.794V81.2698ZM195.048 81.2698H203.175V89.3968H195.048V81.2698ZM211.302 81.2698H219.429V89.3968H211.302V81.2698ZM227.556 81.2698H235.683L235.683 89.3968H227.556L227.556 81.2698ZM243.81 81.2698H251.937V89.3968H243.81V81.2698ZM260.063 81.2698H268.19L268.19 89.3968H260.064L260.063 81.2698ZM276.317 81.2698H284.444V89.3968H276.317V81.2698ZM24.381 89.3968H32.5079V97.5238H24.3809L24.381 89.3968ZM56.8889 89.3968H65.0159V97.5238H56.8889V89.3968ZM89.3968 89.3968H97.5238V97.5238H89.3968V89.3968ZM121.905 89.3968H130.032V97.5238H121.905V89.3968ZM138.159 89.3968H146.286V97.5238H138.159V89.3968ZM154.413 89.3968H162.54V97.5238H154.413V89.3968ZM186.921 89.3968H195.048V97.5238H186.921V89.3968ZM219.429 89.3968H227.556V97.5238H219.429V89.3968ZM251.937 89.3968H260.064V97.5238H251.937V89.3968ZM16.2539 97.5238L24.3809 97.5238V105.651H16.2539V97.5238ZM32.5079 97.5238H40.6349V105.651H32.5079V97.5238ZM48.7619 97.5238H56.8889V105.651H48.7619V97.5238ZM65.0159 97.5238H73.1429V105.651H65.0159V97.5238ZM81.2698 97.5238H89.3968V105.651H81.2698V97.5238ZM97.5238 97.5238H105.651L105.651 105.651H97.5238L97.5238 97.5238ZM113.778 97.5238H121.905V105.651H113.778V97.5238ZM130.032 97.5238H138.159V105.651H130.032V97.5238ZM146.286 97.5238H154.413V105.651H146.286V97.5238ZM162.54 97.5238H170.667V105.651H162.54V97.5238ZM178.794 97.5238H186.921V105.651H178.794V97.5238ZM195.048 97.5238H203.175V105.651H195.048V97.5238ZM211.302 97.5238H219.429L219.429 105.651H211.302L211.302 97.5238ZM227.556 97.5238H235.683V105.651H227.556V97.5238ZM243.81 97.5238H251.937V105.651H243.81V97.5238ZM260.064 97.5238H268.19V105.651H260.064V97.5238ZM276.317 97.5238H284.444V105.651H276.317V97.5238ZM292.571 97.5238H300.698V105.651H292.571V97.5238ZM8.12698 105.651H16.2539V113.778H8.12695L8.12698 105.651ZM24.3809 105.651H32.5079V113.778H24.3809V105.651ZM40.6349 105.651H48.7619V113.778H40.6349V105.651ZM73.1429 105.651H81.2698V113.778H73.1429V105.651ZM89.3968 105.651H97.5238V113.778H89.3968V105.651ZM105.651 105.651H113.778V113.778H105.651V105.651ZM121.905 105.651H130.032V113.778H121.905V105.651ZM138.159 105.651H146.286V113.778H138.159V105.651ZM154.413 105.651H162.54V113.778H154.413V105.651ZM170.667 105.651H178.794V113.778H170.667V105.651ZM186.921 105.651H195.048V113.778H186.921V105.651ZM203.175 105.651H211.302V113.778H203.175L203.175 105.651ZM235.683 105.651H243.81V113.778H235.683V105.651ZM251.937 105.651H260.064V113.778H251.937V105.651ZM268.19 105.651H276.317V113.778H268.19V105.651ZM16.2539 113.778H24.3809V121.905H16.2539V113.778ZM32.5079 113.778H40.6349V121.905H32.5079V113.778ZM48.7619 113.778H56.8889V121.905H48.7619V113.778ZM65.0159 113.778H73.1429V121.905H65.0159V113.778ZM81.2698 113.778H89.3968V121.905H81.2698V113.778ZM97.5238 113.778H105.651V121.905H97.5238V113.778ZM113.778 113.778H121.905V121.905H113.778V113.778ZM130.032 113.778H138.159V121.905H130.032V113.778ZM146.286 113.778H154.413V121.905H146.286V113.778ZM162.54 113.778H170.667V121.905H162.54V113.778ZM178.794 113.778H186.921L186.921 121.905H178.794L178.794 113.778ZM195.048 113.778H203.175V121.905H195.048L195.048 113.778ZM211.302 113.778H219.429V121.905H211.302V113.778ZM227.556 113.778H235.683V121.905H227.556V113.778ZM243.81 113.778H251.937V121.905H243.81V113.778ZM260.064 113.778H268.19V121.905H260.064V113.778ZM276.317 113.778H284.444V121.905H276.317V113.778ZM292.571 113.778H300.698V121.905H292.571V113.778ZM8.12695 121.905H16.2539V146.286H8.12695V121.905ZM24.3809 121.905H32.5079V130.032H24.3809V121.905ZM56.8889 121.905H65.0159V130.032H56.8889V121.905ZM89.3968 121.905H97.5238V130.032H89.3968V121.905ZM105.651 121.905H113.778V130.032H105.651V121.905ZM121.905 121.905H130.032V130.032H121.905V121.905ZM138.159 121.905H146.286V146.286H138.159V121.905ZM154.413 121.905H162.54V130.032H154.413V121.905ZM186.921 121.905H195.048V130.032H186.921V121.905ZM219.429 121.905H227.556V130.032H219.429V121.905ZM251.937 121.905H260.064V130.032H251.937V121.905ZM16.2539 130.032H24.3809V138.159H16.2539V130.032ZM32.5079 130.032H40.6349V138.159H32.5079V130.032ZM48.7619 130.032H56.8889V138.159H48.7619V130.032ZM65.0159 130.032H73.1429V138.159H65.0159V130.032ZM81.2698 130.032H89.3968V138.159H81.2698V130.032ZM97.5238 130.032H105.651V138.159H97.5238V130.032ZM113.778 130.032H121.905V138.159H113.778V130.032ZM130.032 130.032H138.159V138.159H130.032V130.032ZM146.286 130.032H154.413V138.159H146.286V130.032ZM162.54 130.032H170.667V138.159H162.54V130.032ZM178.794 130.032H186.921V138.159H178.794V130.032ZM195.048 130.032H203.175V138.159H195.048V130.032ZM211.302 130.032H219.429V138.159H211.302V130.032ZM227.556 130.032H235.683V138.159H227.556V130.032ZM243.81 130.032H251.937V138.159H243.81V130.032ZM260.064 130.032H268.19V138.159H260.064V130.032ZM276.317 130.032H284.444V138.159H276.317V130.032ZM292.571 130.032H300.698V138.159H292.571V130.032ZM24.3809 138.159H32.5079V146.286H24.381L24.3809 138.159ZM40.6349 138.159H48.7619V146.286H40.6349V138.159ZM73.1429 138.159H81.2698V146.286H73.1429V138.159ZM89.3968 138.159H97.5238V146.286H89.3968V138.159ZM105.651 138.159H113.778V146.286H105.651V138.159ZM121.905 138.159H130.032V146.286H121.905V138.159ZM154.413 138.159H162.54V146.286H154.413V138.159ZM170.667 138.159H178.794V146.286H170.667L170.667 138.159ZM203.175 138.159H211.302V146.286H203.175V138.159ZM235.683 138.159H243.81V146.286H235.683V138.159ZM268.19 138.159H276.317V146.286H268.19V138.159ZM0 146.286H8.12695L8.12698 154.413H0V146.286ZM16.2539 146.286H24.381V154.413H16.2539V146.286ZM32.5079 146.286H40.6349V154.413H32.5079V146.286ZM48.7619 146.286H56.8889V154.413H48.7619V146.286ZM65.0159 146.286H73.1429V154.413H65.0159V146.286ZM81.2698 146.286H89.3968V154.413H81.2698V146.286ZM97.5238 146.286H105.651L105.651 154.413H97.5238L97.5238 146.286ZM113.778 146.286H121.905V154.413H113.778V146.286ZM130.032 146.286H138.159L138.159 154.413H130.032L130.032 146.286ZM146.286 146.286H154.413L154.413 154.413H146.286L146.286 146.286ZM162.54 146.286H170.667V154.413H162.54L162.54 146.286ZM178.794 146.286H186.921V154.413H178.794V146.286ZM195.048 146.286H203.175V154.413H195.048V146.286ZM211.302 146.286H219.429V154.413H211.302V146.286ZM227.556 146.286H235.683V154.413H227.556V146.286ZM243.81 146.286H251.937V154.413H243.81V146.286ZM260.064 146.286H268.19V154.413H260.064V146.286ZM276.317 146.286H284.444V154.413H276.317V146.286ZM292.571 146.286H300.698V154.413H292.571V146.286ZM8.12698 154.413H16.2539V162.54H8.12698V154.413ZM24.381 154.413H32.5079V162.54H24.381V154.413ZM89.3968 154.413H97.5238V162.54H89.3968V154.413ZM121.905 154.413H130.032V162.54H121.905V154.413ZM154.413 154.413H162.54V162.54H154.413V154.413ZM186.921 154.413H195.048V162.54H186.921V154.413ZM219.429 154.413H227.556V162.54H219.429V154.413ZM0 162.54H8.12698L8.12695 170.667H0V162.54ZM16.2539 162.54H24.381V170.667H16.254L16.2539 162.54ZM32.5079 162.54H40.6349V170.667H32.5079V162.54ZM48.7619 162.54H56.8889V170.667H48.7619V162.54ZM65.0159 162.54H73.1429V170.667H65.0159V162.54ZM81.2698 162.54H89.3968V170.667H81.2698V162.54ZM97.5238 162.54H105.651V170.667H97.5238V162.54ZM113.778 162.54H121.905L121.905 170.667H113.778L113.778 162.54ZM130.032 162.54H138.159V170.667H130.032V162.54ZM146.286 162.54H154.413V170.667H146.286V162.54ZM162.54 162.54H170.667V170.667H162.54V162.54ZM178.794 162.54H186.921V170.667H178.794V162.54ZM195.048 162.54H203.175V170.667H195.048V162.54ZM211.302 162.54H219.429V170.667H211.302V162.54ZM227.556 162.54H235.683V170.667H227.556V162.54ZM243.81 162.54H251.937V170.667H243.81V162.54ZM260.064 162.54H268.19V170.667H260.064V162.54ZM276.317 162.54H284.444V170.667H276.317V162.54ZM292.571 162.54H300.698V170.667H292.571V162.54ZM8.12695 170.667H16.254V178.794H8.12695V170.667ZM40.6349 170.667H48.7619V178.794H40.6349V170.667ZM73.1429 170.667H81.2698V178.794H73.1429V170.667ZM105.651 170.667H113.778V178.794H105.651V170.667ZM121.905 170.667H130.032V178.794H121.905V170.667ZM138.159 170.667H146.286V178.794H138.159V170.667ZM170.667 170.667H178.794V178.794H170.667V170.667ZM203.175 170.667H211.302V178.794H203.175V170.667ZM235.683 170.667H243.81V178.794H235.683V170.667ZM268.19 170.667H276.317V178.794H268.19V170.667ZM16.254 178.794H24.381V186.921H16.2539L16.254 178.794ZM32.5079 178.794H40.6349V186.921H32.5079V178.794ZM48.7619 178.794H56.8889V186.921H48.7619V178.794ZM65.0159 178.794H73.1429V186.921H65.0159V178.794ZM81.2698 178.794H89.3968V186.921H81.2698V178.794ZM97.5238 178.794H105.651V186.921H97.5238V178.794ZM113.778 178.794H121.905V186.921H113.778V178.794ZM130.032 178.794H138.159V186.921H130.032V178.794ZM146.286 178.794H154.413V186.921H146.286V178.794ZM162.54 178.794H170.667V186.921H162.54V178.794ZM178.794 178.794H186.921V186.921H178.794V178.794ZM195.048 178.794H203.175V186.921H195.048V178.794ZM211.302 178.794H219.429V186.921H211.302V178.794ZM227.556 178.794H235.683V186.921H227.556V178.794ZM243.81 178.794H251.937V186.921H243.81V178.794ZM260.064 178.794H268.19V186.921H260.064V178.794ZM276.317 178.794H284.444V186.921H276.317V178.794ZM292.571 178.794H300.698V186.921H292.571V178.794ZM8.12695 186.921H16.2539V195.048H8.12695V186.921ZM24.381 186.921H32.5079V195.048H24.381V186.921ZM56.8889 186.921H65.0159V195.048H56.8889V186.921ZM89.3968 186.921H97.5238V195.048H89.3968V186.921ZM121.905 186.921H130.032V195.048H121.905V186.921ZM154.413 186.921H162.54V195.048H154.413V186.921ZM186.921 186.921H195.048V195.048H186.921V186.921ZM16.2539 195.048H24.381V203.175H16.254L16.2539 195.048ZM32.5079 195.048H40.6349V203.175H32.5079V195.048ZM48.7619 195.048H56.8889V203.175H48.7619V195.048ZM65.0159 195.048H73.1429V203.175H65.0159V195.048ZM81.2698 195.048H89.3968V203.175H81.2698V195.048ZM97.5238 195.048H105.651V203.175H97.5238V195.048ZM113.778 195.048H121.905V203.175H113.778V195.048ZM130.032 195.048H138.159V203.175H130.032V195.048ZM146.286 195.048H154.413V203.175H146.286V195.048ZM162.54 195.048H170.667V203.175H162.54V195.048ZM178.794 195.048H186.921V203.175H178.794V195.048ZM195.048 195.048H203.175V203.175H195.048V195.048ZM211.302 195.048H219.429V203.175H211.302V195.048ZM227.556 195.048H235.683V203.175H227.556V195.048ZM243.81 195.048H251.937V203.175H243.81V195.048ZM260.064 195.048H268.19V203.175H260.064V195.048ZM276.317 195.048H284.444V203.175H276.317V195.048ZM292.571 195.048H300.698V203.175H292.571V195.048ZM8.12695 203.175H16.254V211.302H8.12698L8.12695 203.175ZM24.381 203.175H32.5079V211.302H24.381V203.175ZM40.6349 203.175H48.7619V211.302H40.6349V203.175ZM73.1429 203.175H81.2698V211.302H73.1429V203.175ZM105.651 203.175H113.778V211.302H105.651V203.175ZM138.159 203.175H146.286V211.302H138.159V203.175ZM170.667 203.175H178.794V211.302H170.667V203.175ZM203.175 203.175H211.302V211.302H203.175V203.175ZM268.19 203.175H276.317V211.302H268.19V203.175ZM16.254 211.302H24.381V219.429H16.254V211.302ZM32.5079 211.302H40.6349V219.429H32.5079V211.302ZM48.7619 211.302H56.8889V219.429H48.7619V211.302ZM65.0159 211.302H73.1429V219.429H65.0159V211.302ZM81.2698 211.302H89.3968V219.429H81.2698V211.302ZM97.5238 211.302H105.651V219.429H97.5238V211.302ZM113.778 211.302H121.905V219.429H113.778V211.302ZM130.032 211.302H138.159V219.429H130.032V211.302ZM146.286 211.302H154.413V219.429H146.286V211.302ZM162.54 211.302H170.667V219.429H162.54V211.302ZM178.794 211.302H186.921V219.429H178.794V211.302ZM195.048 211.302H203.175V219.429H195.048V211.302ZM211.302 211.302H219.429V219.429H211.302V211.302ZM227.556 211.302H235.683V219.429H227.556V211.302ZM243.81 211.302H251.937V219.429H243.81V211.302ZM260.064 211.302H268.19V219.429H260.064V211.302ZM276.317 211.302H284.444V219.429H276.317V211.302ZM24.381 219.429H32.5079V227.556H24.381V219.429ZM32.5079 227.556H40.6349V235.683H32.5079V227.556ZM48.7619 227.556H56.8889V235.683H48.7619V227.556ZM65.0159 227.556H73.1429V235.683H65.0159V227.556ZM81.2698 227.556H89.3968V235.683H81.2698V227.556ZM97.5238 227.556H105.651V235.683H97.5238V227.556ZM113.778 227.556H121.905V235.683H113.778V227.556ZM130.032 227.556H138.159V235.683H130.032V227.556ZM146.286 227.556H154.413V235.683H146.286V227.556ZM162.54 227.556H170.667V235.683H162.54V227.556ZM178.794 227.556H186.921V235.683H178.794V227.556ZM195.048 227.556H203.175V235.683H195.048V227.556ZM211.302 227.556H219.429V235.683H211.302V227.556ZM227.556 227.556H235.683V235.683H227.556V227.556ZM243.81 227.556H251.937V235.683H243.81V227.556ZM260.064 227.556H268.19V235.683H260.064V227.556ZM276.317 227.556H284.444V235.683H276.317V227.556ZM24.381 235.683H32.5079V243.81H24.381V235.683ZM40.6349 235.683H48.7619V243.81H40.6349V235.683ZM73.1429 235.683H81.2698V243.81H73.1429V235.683ZM105.651 235.683H113.778V243.81H105.651V235.683ZM138.159 235.683H146.286V243.81H138.159V235.683ZM170.667 235.683H178.794V243.81H170.667V235.683ZM203.175 235.683H211.302V243.81H203.175V235.683ZM235.683 235.683H243.81V243.81H235.683V235.683ZM32.5079 243.81H40.6349V251.937H32.5079V243.81ZM48.7619 243.81H56.8889V251.937H48.7619V243.81ZM65.0159 243.81H73.1429V251.937H65.0159V243.81ZM81.2698 243.81H89.3968V251.937H81.2698V243.81ZM97.5238 243.81H105.651V251.937H97.5238V243.81ZM113.778 243.81H121.905V251.937H113.778V243.81ZM130.032 243.81H138.159V251.937H130.032V243.81ZM146.286 243.81H154.413V251.937H146.286V243.81ZM162.54 243.81H170.667V251.937H162.54V243.81ZM178.794 243.81H186.921V251.937H178.794V243.81ZM195.048 243.81H203.175V251.937H195.048V243.81ZM211.302 243.81H219.429V251.937H211.302V243.81ZM227.556 243.81H235.683V251.937H227.556V243.81ZM243.81 243.81H251.937V251.937H243.81V243.81ZM260.064 243.81H268.19V251.937H260.064V243.81ZM276.317 243.81H284.444V251.937H276.317V243.81ZM48.7619 260.064H56.8889V268.19H48.7619V260.064ZM65.0159 260.064H73.1429V268.19H65.0159V260.064ZM81.2698 260.064H89.3968V268.19H81.2698V260.064ZM97.5238 260.064H105.651V268.19H97.5238V260.064ZM113.778 260.064H121.905V268.19H113.778V260.064ZM130.032 260.064H138.159V268.19H130.032V260.064ZM146.286 260.064H154.413V268.19H146.286V260.064ZM162.54 260.064H170.667V268.19H162.54V260.064ZM178.794 260.064H186.921V268.19H178.794V260.064ZM195.048 260.064H203.175V268.19H195.048V260.064ZM211.302 260.064H219.429V268.19H211.302V260.064ZM227.556 260.064H235.683V268.19H227.556V260.064ZM243.81 260.064H251.937V268.19H243.81V260.064ZM260.064 260.064H268.19V268.19H260.064V260.064ZM73.1429 268.19H81.2698V276.317H73.1429V268.19ZM138.159 268.19H146.286V276.317H138.159V268.19ZM65.0159 276.317H73.1429V284.444H65.0159V276.317ZM81.2698 276.317H89.3968V284.444H81.2698V276.317ZM97.5238 276.317H105.651V284.444H97.5238V276.317ZM113.778 276.317H121.905V284.444H113.778V276.317ZM130.032 276.317H138.159V284.444H130.032V276.317ZM146.286 276.317H154.413V284.444H146.286V276.317ZM162.54 276.317H170.667V284.444H162.54V276.317ZM178.794 276.317H186.921V284.444H178.794V276.317ZM195.048 276.317H203.175V284.444H195.048V276.317ZM211.302 276.317H219.429V284.444H211.302V276.317ZM243.81 276.317H251.937V284.444H243.81V276.317ZM97.5238 292.571H105.651V300.698H97.5238V292.571ZM113.778 292.571H121.905V300.698H113.778V292.571ZM130.032 292.571H138.159V300.698H130.032V292.571ZM146.286 292.571H154.413V300.698H146.286V292.571ZM162.54 292.571H170.667V300.698H162.54V292.571ZM178.794 292.571H186.921V300.698H178.794V292.571ZM195.048 292.571H203.175V300.698H195.048V292.571ZM211.302 292.571H219.429V300.698H211.302V292.571Z" fill="#ADC0EB"/>
<path d="M292.571 211.302H300.698V219.429H292.571V211.302Z" fill="#ADC0EB"/>
<path d="M227.556 276.317H235.683V284.444H227.556V276.317Z" fill="#ADC0EB"/>
</svg>
